<?xml version="1.0" encoding="utf-8"?>
<!-- Generator: Adobe Illustrator 24.1.2, SVG Export Plug-In . SVG Version: 6.00 Build 0)  -->
<svg version="1.1" id="Layer_1" xmlns="http://www.w3.org/2000/svg" xmlns:xlink="http://www.w3.org/1999/xlink" x="0px" y="0px"
	 viewBox="0 0 5617.5 3069.1" style="enable-background:new 0 0 5617.5 3069.1;" xml:space="preserve">
<style type="text/css">
	.st0{fill:url(#SVGID_1_);}
	.st1{fill:url(#SVGID_2_);}
	.st2{fill:url(#SVGID_3_);}
	.st3{fill:url(#SVGID_4_);}
	.st4{fill:url(#SVGID_5_);}
	.st5{fill:url(#SVGID_6_);}
	.st6{fill:#FFFFFF;}
	.st7{fill:#53C1DE;}
</style>
<linearGradient id="SVGID_1_" gradientUnits="userSpaceOnUse" x1="1700.942" y1="-3.4139" x2="1702.806" y2="-1.4252" gradientTransform="matrix(805.5508 0 0 795.1891 -1368880.125 3242.7671)">
	<stop  offset="0" style="stop-color:#F9A03C"/>
	<stop  offset="1" style="stop-color:#F7974E"/>
</linearGradient>
<path class="st0" d="M2779.8,2063c1.1-10.9,1.9-21.9,2.6-32.9c0.8-13.1-786.7-760.2-786.7-760.2h-18.8
	C1976.8,1269.9,2775,2111.8,2779.8,2063L2779.8,2063z"/>
<linearGradient id="SVGID_2_" gradientUnits="userSpaceOnUse" x1="1697.3214" y1="-7.4641" x2="1700.8868" y2="-3.9867" gradientTransform="matrix(392.6758 0 0 394.6426 -666422.125 3766.084)">
	<stop  offset="0" style="stop-color:#F9A03C"/>
	<stop  offset="1" style="stop-color:#F7974E"/>
</linearGradient>
<path class="st1" d="M1099.7,1803.8c-1,2.3-2.1,4.6-3.2,6.9c-1.1,2.4-2.3,4.8-3.4,7.2c-25.1,52.3,351.4,420.4,381.7,375.7
	c1.4-2,2.8-4.1,4.1-6c1.5-2.3,3.1-4.6,4.6-6.9C1507.7,2143.9,1110.4,1779.9,1099.7,1803.8L1099.7,1803.8z"/>
<linearGradient id="SVGID_3_" gradientUnits="userSpaceOnUse" x1="1697.7445" y1="-7.6471" x2="1700.9165" y2="-4.0105" gradientTransform="matrix(400.7761 0 0 389.963 -679696.875 4284.666)">
	<stop  offset="0" style="stop-color:#F9A03C"/>
	<stop  offset="1" style="stop-color:#F7974E"/>
</linearGradient>
<path class="st2" d="M1631.7,2321.4c-1.1,2.3-8.6,15.2-15.6,21.9c-1.2,2.3,367.6,368,367.6,368h33.2
	C2017,2711.4,1670.8,2336.9,1631.7,2321.4z"/>
<linearGradient id="SVGID_4_" gradientUnits="userSpaceOnUse" x1="1703.0835" y1="-0.8788" x2="1703.7952" y2="6.050272e-02" gradientTransform="matrix(2498.3396 0 0 2363.3909 -4254280 2357.9221)">
	<stop  offset="0" style="stop-color:#F26D58"/>
	<stop  offset="1" style="stop-color:#F9A03C"/>
</linearGradient>
<path class="st3" d="M2782.9,2023.5c-17.2,382.3-333.5,688-719.9,688h-52.2l-385.9-380.1c31.7-44.8,61.2-91.1,87.5-139.5H2063
	c110.9,0,201.1-90.2,201.1-201.1c0-110.9-90.2-201.1-201.1-201.1h-207.5c15.8-83.6,24.4-169.7,24.4-257.9
	c0-89.5-8.8-176.9-25.2-261.8h128.9l797,785.3C2781.5,2044.6,2782.3,2034.1,2782.9,2023.5L2782.9,2023.5z M494.2,348H284.5v519.7
	h209.6c366.1,0,664,297.8,664,664c0,99.6-22.2,194.2-61.7,279.1l382.4,376.9c125.6-187.9,199-413.5,199-655.9
	C1677.9,879,1146.9,348,494.2,348z"/>
<linearGradient id="SVGID_5_" gradientUnits="userSpaceOnUse" x1="1702.7739" y1="-1.1217" x2="1703.8168" y2="-0.4364" gradientTransform="matrix(1569.598 0 0 1707.1244 -2671216.25 2342.5464)">
	<stop  offset="0" style="stop-color:#B84E51"/>
	<stop  offset="1" style="stop-color:#F68E48"/>
</linearGradient>
<path class="st4" d="M2063,348h-848.9c207.3,126.6,379,306.1,496,519.7H2063c110.9,0,201.1,90.2,201.1,201.1
	c0,110.9-90.2,201.1-201.1,201.1h-79.3l797,785.3c1.9-21.3,3.1-42.7,3.1-64.5c0-175.2-62.9-335.9-167.2-461
	c104.4-125,167.2-285.8,167.2-460.9C2783.7,671.4,2460.4,348,2063,348z"/>
<linearGradient id="SVGID_6_" gradientUnits="userSpaceOnUse" x1="1703.1727" y1="-1.9492" x2="1703.2217" y2="-0.7099" gradientTransform="matrix(1726.1868 0 0 904.572 -2938898.75 3786.1658)">
	<stop  offset="0" style="stop-color:#F9A03C"/>
	<stop  offset="1" style="stop-color:#F7974E"/>
</linearGradient>
<path class="st5" d="M2010.7,2711.4h-790.6c159.1-98.3,296.7-228,404.7-380.1L2010.7,2711.4L2010.7,2711.4z M1478.9,2187.6
	l-382.4-376.8c-105.7,227.1-335.9,385-602.4,385H284.5v519.6h209.6C904.4,2715.3,1266.5,2505.4,1478.9,2187.6z"/>
<g>
	<path class="st6" d="M2824.4,1527.4c0,198.8,194.2,384.5,500.3,489.1c-61.1,307.7-10.9,555.8,156.6,652.4
		c172.2,99.3,428.9,30.6,672.4-182.3c237.4,204.3,477.4,284.7,644.8,187.8c172.1-99.6,224.4-364.5,161.6-681.8
		c318.8-105.4,497.2-263.7,497.2-465.2c0-194.2-194.5-362.3-496.5-466.2c67.6-330.5,10.3-572.5-164.2-673.1
		c-168.3-97-411-12.5-651.9,197.2c-250.6-222.5-491-290.5-665.3-189.6c-168.1,97.3-216.1,349.9-154.7,663.3
		C3028.9,1162.1,2824.4,1333.9,2824.4,1527.4z"/>
	<path class="st7" d="M4896.9,1164.4c-24.9-8.5-50-16.4-75.3-23.7c4.2-17,8.1-34.2,11.6-51.3c57-276.6,19.7-499.4-107.5-572.8
		c-122-70.3-321.5,3-523,178.3c-19.8,17.3-39.3,35.1-58.2,53.4c-12.7-12.2-25.6-24.1-38.7-35.8
		c-211.2-187.5-422.8-266.5-549.9-192.9c-121.9,70.5-158,280-106.7,542.2c5.1,26,10.9,51.8,17.3,77.4c-29.9,8.5-58.9,17.6-86.5,27.2
		c-247.6,86.3-405.7,221.6-405.7,361.9c0,144.9,169.7,290.3,427.6,378.4c20.9,7.1,42,13.7,63.2,19.8c-6.9,27.6-13,55.5-18.4,83.5
		c-48.9,257.6-10.7,462.1,110.8,532.2c125.5,72.4,336.2-2,541.4-181.4c16.2-14.2,32.5-29.2,48.8-45c20.5,19.8,41.6,39,63.2,57.7
		c198.7,171,395,240.1,516.4,169.8c125.4-72.6,166.2-292.3,113.3-559.6c-4-20.4-8.7-41.3-14-62.5c14.8-4.4,29.3-8.9,43.5-13.6
		c268.1-88.8,442.5-232.4,442.5-379.3C5312.6,1387.5,5149.4,1251.3,4896.9,1164.4L4896.9,1164.4z"/>
	<path class="st6" d="M4838.7,1812.8c-12.8,4.2-25.9,8.3-39.3,12.3c-29.6-93.7-69.5-193.3-118.4-296.2
		c46.6-100.5,85-198.8,113.8-291.9c23.9,6.9,47.1,14.2,69.5,21.9c216.4,74.5,348.4,184.6,348.4,269.5
		C5212.7,1618.7,5070.2,1736.1,4838.7,1812.8L4838.7,1812.8z M4742.7,2003.1c23.4,118.2,26.7,225.1,11.2,308.6
		c-13.9,75.1-41.9,125.1-76.6,145.2c-73.7,42.7-231.3-12.8-401.2-159c-19.5-16.8-39.1-34.7-58.8-53.6
		c65.9-72.1,131.7-155.8,196-248.9c113.1-10,219.8-26.4,316.7-48.8C4734.8,1965.8,4739.1,1984.6,4742.7,2003.1L4742.7,2003.1z
		 M3771.5,2449.5c-72,25.4-129.3,26.2-164,6.2c-73.8-42.5-104.4-206.8-62.6-427c5-26,10.7-51.9,17.1-77.6
		c95.8,21.2,201.8,36.4,315.1,45.6c64.7,91,132.4,174.7,200.7,248c-14.5,14-29.4,27.7-44.6,41
		C3942.5,2364.9,3851.6,2421.2,3771.5,2449.5L3771.5,2449.5z M3434.2,1812.2c-114-39-208.2-89.6-272.7-144.9
		c-58-49.7-87.3-99-87.3-139c0-85.1,126.9-193.7,338.7-267.6c26.6-9.2,53.4-17.7,80.5-25.3c29.3,95.2,67.7,194.7,114,295.3
		c-46.9,102.1-85.8,203.2-115.4,299.5C3472.6,1824.7,3453.3,1818.7,3434.2,1812.2z M3547.3,1042.6c-43.9-224.6-14.8-394,58.7-436.5
		c78.2-45.3,251.2,19.3,433.5,181.2c11.7,10.4,23.4,21.2,35.1,32.4c-67.9,73-135.1,156-199.2,246.5c-110,10.2-215.3,26.6-312,48.5
		C3557.4,1090.8,3552,1066.7,3547.3,1042.6L3547.3,1042.6z M4555.9,1291.7c-22.9-39.5-46.6-78.5-71.1-116.9
		c74.6,9.4,146.1,21.9,213.2,37.3c-20.1,64.6-45.3,132.1-74.8,201.3C4601.6,1372.3,4579.2,1331.8,4555.9,1291.7L4555.9,1291.7z
		 M4144.6,891c46.1,49.9,92.2,105.6,137.6,166.1c-92.1-4.4-184.3-4.4-276.4-0.1C4051.3,997.2,4097.8,941.5,4144.6,891L4144.6,891z
		 M3730.6,1292.3c-22.9,39.8-44.9,80.1-66,120.9c-29.1-69-54-136.8-74.3-202.3c66.7-14.9,137.9-27.1,212-36.4
		C3777.5,1213.2,3753.6,1252.5,3730.6,1292.3z M3804.5,1889.3c-76.6-8.6-148.8-20.1-215.5-34.6c20.6-66.7,46.1-136,75.8-206.4
		c21.1,40.8,43.2,81.2,66.3,121C3754.6,1809.8,3779,1849.8,3804.5,1889.3z M4147.4,2172.7c-47.3-51.1-94.6-107.6-140.7-168.4
		c44.8,1.8,90.4,2.6,136.8,2.6c47.7,0,94.8-1.1,141.2-3.1C4239.1,2065.7,4193.1,2122.3,4147.4,2172.7z M4624.1,1644.6
		c31.3,71.2,57.6,140.2,78.5,205.7c-67.8,15.5-141,27.9-218.1,37.2c24.7-39.2,48.7-78.9,71.8-119
		C4579.8,1727.7,4602.5,1686.4,4624.1,1644.6L4624.1,1644.6z M4469.8,1718.6c-35.4,61.5-72.8,121.9-112.2,181
		c-69.4,5-141.1,7.5-214.1,7.5c-72.8,0-143.5-2.3-211.7-6.7c-40.4-59-78.5-119.4-114.3-181.3c-35.6-61.5-68.9-124.4-99.8-188.4
		c30.8-64.1,64-126.9,99.5-188.5v0c35.5-61.6,73.3-121.8,113.4-180.5c69.5-5.3,140.8-8,212.9-8c72.4,0,143.8,2.8,213.3,8.1
		c39.7,58.6,77.2,118.6,112.7,179.9c35.6,61.4,69.2,124,100.8,187.6C4539,1593.6,4505.5,1656.7,4469.8,1718.6L4469.8,1718.6z
		 M4675.9,603.1c78.3,45.2,108.7,227.3,59.6,466.1c-3.2,15.6-6.7,31.1-10.5,46.5c-97-22.4-202.4-39-312.7-49.4
		c-64.3-91.5-130.8-174.7-197.7-246.7c17.5-16.9,35.4-33.3,53.8-49.3C4441,620,4602.3,560.7,4675.9,603.1L4675.9,603.1z"/>
	<path class="st7" d="M4143.5,1319.5c115.3,0,208.8,93.5,208.8,208.8c0,115.3-93.5,208.8-208.8,208.8
		c-115.3,0-208.8-93.5-208.8-208.8C3934.7,1413,4028.2,1319.5,4143.5,1319.5"/>
</g>
</svg>
